<mxfile host="Electron" agent="Mozilla/5.0 (Windows NT 10.0; Win64; x64) AppleWebKit/537.36 (KHTML, like Gecko) draw.io/26.1.1 Chrome/132.0.6834.210 Electron/34.3.3 Safari/537.36" version="26.1.1">
  <diagram name="Page-1" id="ANOT7jtBX7suNzTZZ6AC">
    <mxGraphModel dx="838" dy="973" grid="1" gridSize="10" guides="1" tooltips="1" connect="1" arrows="1" fold="1" page="1" pageScale="1" pageWidth="850" pageHeight="1100" math="0" shadow="0">
      <root>
        <mxCell id="0" />
        <mxCell id="1" parent="0" />
        <mxCell id="ttyiontSjYre_Ax7UXtF-5" style="edgeStyle=orthogonalEdgeStyle;rounded=0;orthogonalLoop=1;jettySize=auto;html=1;entryX=0;entryY=0.5;entryDx=0;entryDy=0;" edge="1" parent="1" source="ttyiontSjYre_Ax7UXtF-1" target="ttyiontSjYre_Ax7UXtF-4">
          <mxGeometry relative="1" as="geometry" />
        </mxCell>
        <mxCell id="ttyiontSjYre_Ax7UXtF-11" style="edgeStyle=orthogonalEdgeStyle;rounded=0;orthogonalLoop=1;jettySize=auto;html=1;entryX=0;entryY=0.5;entryDx=0;entryDy=0;" edge="1" parent="1" source="ttyiontSjYre_Ax7UXtF-1" target="ttyiontSjYre_Ax7UXtF-9">
          <mxGeometry relative="1" as="geometry" />
        </mxCell>
        <mxCell id="ttyiontSjYre_Ax7UXtF-12" style="edgeStyle=orthogonalEdgeStyle;rounded=0;orthogonalLoop=1;jettySize=auto;html=1;entryX=0;entryY=0.5;entryDx=0;entryDy=0;" edge="1" parent="1" source="ttyiontSjYre_Ax7UXtF-1" target="ttyiontSjYre_Ax7UXtF-10">
          <mxGeometry relative="1" as="geometry" />
        </mxCell>
        <mxCell id="ttyiontSjYre_Ax7UXtF-1" value="Artist&lt;div&gt;&lt;br&gt;&lt;/div&gt;" style="shape=umlActor;verticalLabelPosition=bottom;verticalAlign=top;html=1;outlineConnect=0;" vertex="1" parent="1">
          <mxGeometry x="110" y="225" width="30" height="60" as="geometry" />
        </mxCell>
        <mxCell id="ttyiontSjYre_Ax7UXtF-3" value="" style="rounded=0;whiteSpace=wrap;html=1;fillColor=none;" vertex="1" parent="1">
          <mxGeometry x="260" y="210" width="250" height="930" as="geometry" />
        </mxCell>
        <mxCell id="ttyiontSjYre_Ax7UXtF-4" value="post art work" style="html=1;whiteSpace=wrap;" vertex="1" parent="1">
          <mxGeometry x="320" y="230" width="110" height="50" as="geometry" />
        </mxCell>
        <mxCell id="ttyiontSjYre_Ax7UXtF-8" style="edgeStyle=orthogonalEdgeStyle;rounded=0;orthogonalLoop=1;jettySize=auto;html=1;entryX=1;entryY=0.5;entryDx=0;entryDy=0;" edge="1" parent="1" source="ttyiontSjYre_Ax7UXtF-7" target="ttyiontSjYre_Ax7UXtF-4">
          <mxGeometry relative="1" as="geometry" />
        </mxCell>
        <mxCell id="ttyiontSjYre_Ax7UXtF-13" style="edgeStyle=orthogonalEdgeStyle;rounded=0;orthogonalLoop=1;jettySize=auto;html=1;entryX=1;entryY=0.5;entryDx=0;entryDy=0;" edge="1" parent="1" source="ttyiontSjYre_Ax7UXtF-7" target="ttyiontSjYre_Ax7UXtF-9">
          <mxGeometry relative="1" as="geometry" />
        </mxCell>
        <mxCell id="ttyiontSjYre_Ax7UXtF-14" style="edgeStyle=orthogonalEdgeStyle;rounded=0;orthogonalLoop=1;jettySize=auto;html=1;entryX=1;entryY=0.5;entryDx=0;entryDy=0;" edge="1" parent="1" source="ttyiontSjYre_Ax7UXtF-7" target="ttyiontSjYre_Ax7UXtF-10">
          <mxGeometry relative="1" as="geometry" />
        </mxCell>
        <mxCell id="ttyiontSjYre_Ax7UXtF-7" value="«interface»&lt;br&gt;&lt;b&gt;artWorkmanage service&lt;/b&gt;" style="html=1;whiteSpace=wrap;" vertex="1" parent="1">
          <mxGeometry x="550" y="230" width="110" height="50" as="geometry" />
        </mxCell>
        <mxCell id="ttyiontSjYre_Ax7UXtF-9" value="delete art work" style="html=1;whiteSpace=wrap;" vertex="1" parent="1">
          <mxGeometry x="320" y="290" width="110" height="50" as="geometry" />
        </mxCell>
        <mxCell id="ttyiontSjYre_Ax7UXtF-10" value="update art work" style="html=1;whiteSpace=wrap;" vertex="1" parent="1">
          <mxGeometry x="320" y="350" width="110" height="50" as="geometry" />
        </mxCell>
        <mxCell id="ttyiontSjYre_Ax7UXtF-16" value="start online chat" style="html=1;whiteSpace=wrap;" vertex="1" parent="1">
          <mxGeometry x="320" y="440" width="110" height="50" as="geometry" />
        </mxCell>
        <mxCell id="ttyiontSjYre_Ax7UXtF-19" style="edgeStyle=orthogonalEdgeStyle;rounded=0;orthogonalLoop=1;jettySize=auto;html=1;entryX=0;entryY=0.5;entryDx=0;entryDy=0;" edge="1" parent="1" source="ttyiontSjYre_Ax7UXtF-18" target="ttyiontSjYre_Ax7UXtF-16">
          <mxGeometry relative="1" as="geometry" />
        </mxCell>
        <mxCell id="ttyiontSjYre_Ax7UXtF-30" style="edgeStyle=orthogonalEdgeStyle;rounded=0;orthogonalLoop=1;jettySize=auto;html=1;entryX=0;entryY=0.5;entryDx=0;entryDy=0;" edge="1" parent="1" source="ttyiontSjYre_Ax7UXtF-18" target="ttyiontSjYre_Ax7UXtF-25">
          <mxGeometry relative="1" as="geometry" />
        </mxCell>
        <mxCell id="ttyiontSjYre_Ax7UXtF-34" style="edgeStyle=orthogonalEdgeStyle;rounded=0;orthogonalLoop=1;jettySize=auto;html=1;entryX=0;entryY=0.5;entryDx=0;entryDy=0;" edge="1" parent="1" source="ttyiontSjYre_Ax7UXtF-18" target="ttyiontSjYre_Ax7UXtF-33">
          <mxGeometry relative="1" as="geometry" />
        </mxCell>
        <mxCell id="ttyiontSjYre_Ax7UXtF-18" value="Buyer" style="shape=umlActor;verticalLabelPosition=bottom;verticalAlign=top;html=1;outlineConnect=0;" vertex="1" parent="1">
          <mxGeometry x="110" y="435" width="30" height="60" as="geometry" />
        </mxCell>
        <mxCell id="ttyiontSjYre_Ax7UXtF-20" style="edgeStyle=orthogonalEdgeStyle;rounded=0;orthogonalLoop=1;jettySize=auto;html=1;entryX=0.518;entryY=0.18;entryDx=0;entryDy=0;entryPerimeter=0;" edge="1" parent="1" source="ttyiontSjYre_Ax7UXtF-1" target="ttyiontSjYre_Ax7UXtF-16">
          <mxGeometry relative="1" as="geometry">
            <Array as="points">
              <mxPoint x="125" y="420" />
              <mxPoint x="377" y="420" />
            </Array>
          </mxGeometry>
        </mxCell>
        <mxCell id="ttyiontSjYre_Ax7UXtF-21" value="provide advice" style="edgeLabel;html=1;align=center;verticalAlign=middle;resizable=0;points=[];" vertex="1" connectable="0" parent="ttyiontSjYre_Ax7UXtF-20">
          <mxGeometry x="-0.0337" y="1" relative="1" as="geometry">
            <mxPoint as="offset" />
          </mxGeometry>
        </mxCell>
        <mxCell id="ttyiontSjYre_Ax7UXtF-24" style="edgeStyle=orthogonalEdgeStyle;rounded=0;orthogonalLoop=1;jettySize=auto;html=1;entryX=1;entryY=0.5;entryDx=0;entryDy=0;" edge="1" parent="1" source="ttyiontSjYre_Ax7UXtF-23" target="ttyiontSjYre_Ax7UXtF-16">
          <mxGeometry relative="1" as="geometry" />
        </mxCell>
        <mxCell id="ttyiontSjYre_Ax7UXtF-23" value="«interface»&lt;br&gt;&lt;b&gt;chat service&lt;/b&gt;" style="html=1;whiteSpace=wrap;" vertex="1" parent="1">
          <mxGeometry x="550" y="440" width="110" height="50" as="geometry" />
        </mxCell>
        <mxCell id="ttyiontSjYre_Ax7UXtF-25" value="get total fees" style="html=1;whiteSpace=wrap;" vertex="1" parent="1">
          <mxGeometry x="320" y="570" width="110" height="50" as="geometry" />
        </mxCell>
        <mxCell id="ttyiontSjYre_Ax7UXtF-26" value="confirm a order" style="html=1;whiteSpace=wrap;" vertex="1" parent="1">
          <mxGeometry x="320" y="510" width="110" height="50" as="geometry" />
        </mxCell>
        <mxCell id="ttyiontSjYre_Ax7UXtF-28" style="edgeStyle=orthogonalEdgeStyle;rounded=0;orthogonalLoop=1;jettySize=auto;html=1;entryX=1;entryY=0.5;entryDx=0;entryDy=0;" edge="1" parent="1" source="ttyiontSjYre_Ax7UXtF-27" target="ttyiontSjYre_Ax7UXtF-26">
          <mxGeometry relative="1" as="geometry" />
        </mxCell>
        <mxCell id="ttyiontSjYre_Ax7UXtF-29" style="edgeStyle=orthogonalEdgeStyle;rounded=0;orthogonalLoop=1;jettySize=auto;html=1;entryX=1;entryY=0.5;entryDx=0;entryDy=0;" edge="1" parent="1" source="ttyiontSjYre_Ax7UXtF-27" target="ttyiontSjYre_Ax7UXtF-25">
          <mxGeometry relative="1" as="geometry" />
        </mxCell>
        <mxCell id="ttyiontSjYre_Ax7UXtF-35" style="edgeStyle=orthogonalEdgeStyle;rounded=0;orthogonalLoop=1;jettySize=auto;html=1;entryX=1;entryY=0.5;entryDx=0;entryDy=0;" edge="1" parent="1" source="ttyiontSjYre_Ax7UXtF-27" target="ttyiontSjYre_Ax7UXtF-33">
          <mxGeometry relative="1" as="geometry" />
        </mxCell>
        <mxCell id="ttyiontSjYre_Ax7UXtF-50" style="edgeStyle=orthogonalEdgeStyle;rounded=0;orthogonalLoop=1;jettySize=auto;html=1;entryX=1;entryY=0.5;entryDx=0;entryDy=0;" edge="1" parent="1" source="ttyiontSjYre_Ax7UXtF-27" target="ttyiontSjYre_Ax7UXtF-49">
          <mxGeometry relative="1" as="geometry">
            <Array as="points">
              <mxPoint x="605" y="600" />
              <mxPoint x="710" y="600" />
              <mxPoint x="710" y="925" />
            </Array>
          </mxGeometry>
        </mxCell>
        <mxCell id="ttyiontSjYre_Ax7UXtF-27" value="«interface»&lt;br&gt;&lt;b&gt;order service&lt;/b&gt;" style="html=1;whiteSpace=wrap;" vertex="1" parent="1">
          <mxGeometry x="550" y="525" width="110" height="50" as="geometry" />
        </mxCell>
        <mxCell id="ttyiontSjYre_Ax7UXtF-32" style="edgeStyle=orthogonalEdgeStyle;rounded=0;orthogonalLoop=1;jettySize=auto;html=1;entryX=1;entryY=0.5;entryDx=0;entryDy=0;" edge="1" parent="1" source="ttyiontSjYre_Ax7UXtF-31" target="ttyiontSjYre_Ax7UXtF-27">
          <mxGeometry relative="1" as="geometry" />
        </mxCell>
        <mxCell id="ttyiontSjYre_Ax7UXtF-31" value="external ship third service" style="html=1;whiteSpace=wrap;" vertex="1" parent="1">
          <mxGeometry x="730" y="525" width="110" height="50" as="geometry" />
        </mxCell>
        <mxCell id="ttyiontSjYre_Ax7UXtF-33" value="select shipping method" style="html=1;whiteSpace=wrap;" vertex="1" parent="1">
          <mxGeometry x="320" y="630" width="110" height="50" as="geometry" />
        </mxCell>
        <mxCell id="ttyiontSjYre_Ax7UXtF-37" style="edgeStyle=orthogonalEdgeStyle;rounded=0;orthogonalLoop=1;jettySize=auto;html=1;exitX=0.5;exitY=0.5;exitDx=0;exitDy=0;exitPerimeter=0;entryX=0;entryY=0.5;entryDx=0;entryDy=0;" edge="1" parent="1" source="ttyiontSjYre_Ax7UXtF-36" target="ttyiontSjYre_Ax7UXtF-26">
          <mxGeometry relative="1" as="geometry">
            <Array as="points">
              <mxPoint x="125" y="720" />
              <mxPoint x="270" y="720" />
              <mxPoint x="270" y="535" />
            </Array>
          </mxGeometry>
        </mxCell>
        <mxCell id="ttyiontSjYre_Ax7UXtF-41" style="edgeStyle=orthogonalEdgeStyle;rounded=0;orthogonalLoop=1;jettySize=auto;html=1;entryX=0;entryY=0.5;entryDx=0;entryDy=0;" edge="1" parent="1" source="ttyiontSjYre_Ax7UXtF-36" target="ttyiontSjYre_Ax7UXtF-39">
          <mxGeometry relative="1" as="geometry">
            <Array as="points">
              <mxPoint x="230" y="770" />
              <mxPoint x="230" y="735" />
            </Array>
          </mxGeometry>
        </mxCell>
        <mxCell id="ttyiontSjYre_Ax7UXtF-36" value="Collector" style="shape=umlActor;verticalLabelPosition=bottom;verticalAlign=top;html=1;outlineConnect=0;" vertex="1" parent="1">
          <mxGeometry x="110" y="740" width="30" height="60" as="geometry" />
        </mxCell>
        <mxCell id="ttyiontSjYre_Ax7UXtF-43" style="edgeStyle=orthogonalEdgeStyle;rounded=0;orthogonalLoop=1;jettySize=auto;html=1;" edge="1" parent="1" source="ttyiontSjYre_Ax7UXtF-38" target="ttyiontSjYre_Ax7UXtF-39">
          <mxGeometry relative="1" as="geometry" />
        </mxCell>
        <mxCell id="ttyiontSjYre_Ax7UXtF-44" style="edgeStyle=orthogonalEdgeStyle;rounded=0;orthogonalLoop=1;jettySize=auto;html=1;entryX=1;entryY=0.5;entryDx=0;entryDy=0;" edge="1" parent="1" source="ttyiontSjYre_Ax7UXtF-38" target="ttyiontSjYre_Ax7UXtF-40">
          <mxGeometry relative="1" as="geometry" />
        </mxCell>
        <mxCell id="ttyiontSjYre_Ax7UXtF-38" value="«interface»&lt;br&gt;&lt;b&gt;auction service&lt;/b&gt;" style="html=1;whiteSpace=wrap;" vertex="1" parent="1">
          <mxGeometry x="550" y="710" width="110" height="50" as="geometry" />
        </mxCell>
        <mxCell id="ttyiontSjYre_Ax7UXtF-39" value="join an auction" style="html=1;whiteSpace=wrap;" vertex="1" parent="1">
          <mxGeometry x="320" y="710" width="110" height="50" as="geometry" />
        </mxCell>
        <mxCell id="ttyiontSjYre_Ax7UXtF-40" value="start an auction" style="html=1;whiteSpace=wrap;" vertex="1" parent="1">
          <mxGeometry x="320" y="780" width="110" height="50" as="geometry" />
        </mxCell>
        <mxCell id="ttyiontSjYre_Ax7UXtF-51" style="edgeStyle=orthogonalEdgeStyle;rounded=0;orthogonalLoop=1;jettySize=auto;html=1;entryX=0;entryY=0.5;entryDx=0;entryDy=0;" edge="1" parent="1" source="ttyiontSjYre_Ax7UXtF-46" target="ttyiontSjYre_Ax7UXtF-49">
          <mxGeometry relative="1" as="geometry" />
        </mxCell>
        <mxCell id="ttyiontSjYre_Ax7UXtF-46" value="Dealer" style="shape=umlActor;verticalLabelPosition=bottom;verticalAlign=top;html=1;outlineConnect=0;" vertex="1" parent="1">
          <mxGeometry x="110" y="930" width="30" height="60" as="geometry" />
        </mxCell>
        <mxCell id="ttyiontSjYre_Ax7UXtF-47" style="edgeStyle=orthogonalEdgeStyle;rounded=0;orthogonalLoop=1;jettySize=auto;html=1;entryX=0.445;entryY=1.14;entryDx=0;entryDy=0;entryPerimeter=0;" edge="1" parent="1" source="ttyiontSjYre_Ax7UXtF-46" target="ttyiontSjYre_Ax7UXtF-40">
          <mxGeometry relative="1" as="geometry">
            <Array as="points">
              <mxPoint x="125" y="860" />
              <mxPoint x="369" y="860" />
            </Array>
          </mxGeometry>
        </mxCell>
        <mxCell id="ttyiontSjYre_Ax7UXtF-49" value="get seal-order report" style="html=1;whiteSpace=wrap;" vertex="1" parent="1">
          <mxGeometry x="320" y="900" width="110" height="50" as="geometry" />
        </mxCell>
      </root>
    </mxGraphModel>
  </diagram>
</mxfile>
